<mxfile host="app.diagrams.net" modified="2024-04-26T04:01:34.139Z" agent="Mozilla/5.0 (Macintosh; Intel Mac OS X 10_15_7) AppleWebKit/605.1.15 (KHTML, like Gecko) Version/17.4.1 Safari/605.1.15" etag="aeLibCJbDsaMhJQbwCPG" version="24.3.0" type="github">
  <diagram name="Page-1" id="ngEgsprzTjl2d6K8MJkI">
    <mxGraphModel dx="1586" dy="2359" grid="1" gridSize="10" guides="1" tooltips="1" connect="1" arrows="1" fold="1" page="1" pageScale="1" pageWidth="827" pageHeight="1169" math="0" shadow="0">
      <root>
        <mxCell id="0" />
        <mxCell id="1" parent="0" />
        <mxCell id="jkUnA_sb27jhFwllfTlR-1" value="" style="sketch=0;outlineConnect=0;fontColor=#232F3E;gradientColor=none;fillColor=#232F3D;strokeColor=none;dashed=0;verticalLabelPosition=bottom;verticalAlign=top;align=center;html=1;fontSize=12;fontStyle=0;aspect=fixed;pointerEvents=1;shape=mxgraph.aws4.mobile_client;" parent="1" vertex="1">
          <mxGeometry x="290" y="98.01" width="40" height="76.1" as="geometry" />
        </mxCell>
        <mxCell id="jkUnA_sb27jhFwllfTlR-2" value="CDN" style="image;aspect=fixed;html=1;points=[];align=center;fontSize=12;image=img/lib/azure2/app_services/CDN_Profiles.svg;" parent="1" vertex="1">
          <mxGeometry x="580" y="106.64" width="100" height="58.83" as="geometry" />
        </mxCell>
        <mxCell id="jkUnA_sb27jhFwllfTlR-4" value="Map Tiles" style="strokeWidth=2;html=1;shape=mxgraph.flowchart.database;whiteSpace=wrap;" parent="1" vertex="1">
          <mxGeometry x="600" y="235" width="80" height="110" as="geometry" />
        </mxCell>
        <mxCell id="jkUnA_sb27jhFwllfTlR-5" value="" style="edgeStyle=none;orthogonalLoop=1;jettySize=auto;html=1;rounded=0;" parent="1" source="jkUnA_sb27jhFwllfTlR-1" target="jkUnA_sb27jhFwllfTlR-2" edge="1">
          <mxGeometry width="80" relative="1" as="geometry">
            <mxPoint x="410" y="610" as="sourcePoint" />
            <mxPoint x="490" y="610" as="targetPoint" />
            <Array as="points" />
          </mxGeometry>
        </mxCell>
        <mxCell id="jkUnA_sb27jhFwllfTlR-7" value="Load Balancer" style="rounded=1;whiteSpace=wrap;html=1;" parent="1" vertex="1">
          <mxGeometry x="250" y="260" width="120" height="60" as="geometry" />
        </mxCell>
        <mxCell id="jkUnA_sb27jhFwllfTlR-8" value="" style="edgeStyle=none;orthogonalLoop=1;jettySize=auto;html=1;rounded=0;entryX=0.5;entryY=0;entryDx=0;entryDy=0;" parent="1" source="jkUnA_sb27jhFwllfTlR-1" target="jkUnA_sb27jhFwllfTlR-7" edge="1">
          <mxGeometry width="80" relative="1" as="geometry">
            <mxPoint x="300" y="210" as="sourcePoint" />
            <mxPoint x="380" y="210" as="targetPoint" />
            <Array as="points" />
          </mxGeometry>
        </mxCell>
        <mxCell id="jkUnA_sb27jhFwllfTlR-9" value="Navigation Service" style="rounded=1;whiteSpace=wrap;html=1;" parent="1" vertex="1">
          <mxGeometry x="70" y="370" width="120" height="60" as="geometry" />
        </mxCell>
        <mxCell id="jkUnA_sb27jhFwllfTlR-10" value="Location Service" style="rounded=1;whiteSpace=wrap;html=1;" parent="1" vertex="1">
          <mxGeometry x="420" y="370" width="120" height="60" as="geometry" />
        </mxCell>
        <mxCell id="jkUnA_sb27jhFwllfTlR-11" value="" style="edgeStyle=none;orthogonalLoop=1;jettySize=auto;html=1;rounded=0;exitX=0;exitY=0.5;exitDx=0;exitDy=0;entryX=0.5;entryY=0;entryDx=0;entryDy=0;" parent="1" source="jkUnA_sb27jhFwllfTlR-7" target="jkUnA_sb27jhFwllfTlR-9" edge="1">
          <mxGeometry width="80" relative="1" as="geometry">
            <mxPoint x="230" y="340" as="sourcePoint" />
            <mxPoint x="310" y="340" as="targetPoint" />
            <Array as="points" />
          </mxGeometry>
        </mxCell>
        <mxCell id="jkUnA_sb27jhFwllfTlR-12" value="" style="edgeStyle=none;orthogonalLoop=1;jettySize=auto;html=1;rounded=0;exitX=1;exitY=0.5;exitDx=0;exitDy=0;entryX=0.5;entryY=0;entryDx=0;entryDy=0;" parent="1" source="jkUnA_sb27jhFwllfTlR-7" target="jkUnA_sb27jhFwllfTlR-10" edge="1">
          <mxGeometry width="80" relative="1" as="geometry">
            <mxPoint x="400" y="290" as="sourcePoint" />
            <mxPoint x="480" y="290" as="targetPoint" />
            <Array as="points" />
          </mxGeometry>
        </mxCell>
        <mxCell id="jkUnA_sb27jhFwllfTlR-13" value="" style="edgeStyle=none;orthogonalLoop=1;jettySize=auto;html=1;rounded=0;exitX=0.59;exitY=0.958;exitDx=0;exitDy=0;exitPerimeter=0;" parent="1" source="jkUnA_sb27jhFwllfTlR-2" target="jkUnA_sb27jhFwllfTlR-4" edge="1">
          <mxGeometry width="80" relative="1" as="geometry">
            <mxPoint x="750" y="220" as="sourcePoint" />
            <mxPoint x="830" y="220" as="targetPoint" />
            <Array as="points" />
          </mxGeometry>
        </mxCell>
        <mxCell id="jkUnA_sb27jhFwllfTlR-14" value="" style="strokeWidth=2;html=1;shape=mxgraph.flowchart.database;whiteSpace=wrap;" parent="1" vertex="1">
          <mxGeometry x="40" y="540" width="60" height="60" as="geometry" />
        </mxCell>
        <mxCell id="jkUnA_sb27jhFwllfTlR-15" value="Geocoding DB" style="text;strokeColor=none;align=center;fillColor=none;html=1;verticalAlign=middle;whiteSpace=wrap;rounded=0;" parent="1" vertex="1">
          <mxGeometry x="50" y="600" width="60" height="30" as="geometry" />
        </mxCell>
        <mxCell id="jkUnA_sb27jhFwllfTlR-16" value="" style="strokeWidth=2;html=1;shape=mxgraph.flowchart.database;whiteSpace=wrap;" parent="1" vertex="1">
          <mxGeometry x="180" y="540" width="60" height="60" as="geometry" />
        </mxCell>
        <mxCell id="jkUnA_sb27jhFwllfTlR-17" value="Routing Tiles" style="text;strokeColor=none;align=center;fillColor=none;html=1;verticalAlign=middle;whiteSpace=wrap;rounded=0;" parent="1" vertex="1">
          <mxGeometry x="170" y="600" width="60" height="30" as="geometry" />
        </mxCell>
        <mxCell id="jkUnA_sb27jhFwllfTlR-20" value="" style="edgeStyle=none;orthogonalLoop=1;jettySize=auto;html=1;rounded=0;exitX=0.5;exitY=1;exitDx=0;exitDy=0;entryX=0.5;entryY=0;entryDx=0;entryDy=0;entryPerimeter=0;" parent="1" source="jkUnA_sb27jhFwllfTlR-9" target="jkUnA_sb27jhFwllfTlR-14" edge="1">
          <mxGeometry width="80" relative="1" as="geometry">
            <mxPoint x="130" y="450" as="sourcePoint" />
            <mxPoint x="210" y="450" as="targetPoint" />
            <Array as="points" />
          </mxGeometry>
        </mxCell>
        <mxCell id="jkUnA_sb27jhFwllfTlR-21" value="" style="edgeStyle=none;orthogonalLoop=1;jettySize=auto;html=1;rounded=0;entryX=0.5;entryY=0;entryDx=0;entryDy=0;entryPerimeter=0;" parent="1" target="jkUnA_sb27jhFwllfTlR-16" edge="1">
          <mxGeometry width="80" relative="1" as="geometry">
            <mxPoint x="130" y="430" as="sourcePoint" />
            <mxPoint x="290" y="480" as="targetPoint" />
            <Array as="points" />
          </mxGeometry>
        </mxCell>
        <mxCell id="jkUnA_sb27jhFwllfTlR-22" value="" style="strokeWidth=2;html=1;shape=mxgraph.flowchart.database;whiteSpace=wrap;" parent="1" vertex="1">
          <mxGeometry x="450" y="525" width="60" height="60" as="geometry" />
        </mxCell>
        <mxCell id="jkUnA_sb27jhFwllfTlR-23" value="User Location DB" style="text;strokeColor=none;align=center;fillColor=none;html=1;verticalAlign=middle;whiteSpace=wrap;rounded=0;" parent="1" vertex="1">
          <mxGeometry x="450" y="592" width="60" height="30" as="geometry" />
        </mxCell>
        <mxCell id="jkUnA_sb27jhFwllfTlR-24" value="" style="edgeStyle=none;orthogonalLoop=1;jettySize=auto;html=1;rounded=0;exitX=0.5;exitY=1;exitDx=0;exitDy=0;entryX=0.5;entryY=0;entryDx=0;entryDy=0;entryPerimeter=0;" parent="1" source="jkUnA_sb27jhFwllfTlR-10" target="jkUnA_sb27jhFwllfTlR-22" edge="1">
          <mxGeometry width="80" relative="1" as="geometry">
            <mxPoint x="510" y="450" as="sourcePoint" />
            <mxPoint x="590" y="450" as="targetPoint" />
            <Array as="points" />
          </mxGeometry>
        </mxCell>
        <mxCell id="jkUnA_sb27jhFwllfTlR-25" value="&lt;font style=&quot;font-size: 24px;&quot;&gt;High Level Design of Google Maps&lt;/font&gt;" style="text;strokeColor=none;align=center;fillColor=none;html=1;verticalAlign=middle;whiteSpace=wrap;rounded=0;" parent="1" vertex="1">
          <mxGeometry x="40" y="-30" width="410" height="120" as="geometry" />
        </mxCell>
        <mxCell id="jkUnA_sb27jhFwllfTlR-26" value="Location Service API&lt;div&gt;&lt;span style=&quot;white-space: pre;&quot;&gt;&#x9;&lt;/span&gt;POST v1/location&lt;/div&gt;&lt;div&gt;&lt;span style=&quot;white-space: pre;&quot;&gt;&#x9;&lt;/span&gt;Parameters:&lt;/div&gt;&lt;blockquote style=&quot;margin: 0 0 0 40px; border: none; padding: 0px;&quot;&gt;&lt;div&gt;&amp;nbsp;[&lt;/div&gt;&lt;/blockquote&gt;&lt;blockquote style=&quot;margin: 0 0 0 40px; border: none; padding: 0px;&quot;&gt;&lt;blockquote style=&quot;margin: 0 0 0 40px; border: none; padding: 0px;&quot;&gt;&lt;div&gt;{&lt;/div&gt;&lt;div&gt;latitude: &quot;&quot;,&lt;/div&gt;&lt;/blockquote&gt;&lt;blockquote style=&quot;margin: 0 0 0 40px; border: none; padding: 0px;&quot;&gt;&lt;div&gt;longitude:&quot;&quot;,&lt;/div&gt;&lt;/blockquote&gt;&lt;blockquote style=&quot;margin: 0 0 0 40px; border: none; padding: 0px;&quot;&gt;&lt;div&gt;timestamp:&quot;&quot;&lt;/div&gt;&lt;div&gt;}&lt;/div&gt;&lt;/blockquote&gt;&lt;/blockquote&gt;&lt;blockquote style=&quot;margin: 0 0 0 40px; border: none; padding: 0px;&quot;&gt;&lt;div&gt;]&lt;/div&gt;&lt;/blockquote&gt;" style="text;strokeColor=none;align=left;fillColor=none;html=1;verticalAlign=middle;whiteSpace=wrap;rounded=0;" parent="1" vertex="1">
          <mxGeometry x="570" y="390" width="390" height="160" as="geometry" />
        </mxCell>
        <mxCell id="axtBDR2nrEtwxMogJxHG-1" value="1:1 chat application(scale to million users)" style="text;strokeColor=none;align=center;fillColor=none;html=1;verticalAlign=middle;whiteSpace=wrap;rounded=0;" parent="1" vertex="1">
          <mxGeometry x="110" y="-1140" width="350" height="60" as="geometry" />
        </mxCell>
        <mxCell id="axtBDR2nrEtwxMogJxHG-2" value="" style="verticalLabelPosition=bottom;verticalAlign=top;html=1;shadow=0;dashed=0;strokeWidth=1;shape=mxgraph.android.phone2;strokeColor=#c0c0c0;" parent="1" vertex="1">
          <mxGeometry x="470" y="-1090" width="100" height="180" as="geometry" />
        </mxCell>
        <mxCell id="axtBDR2nrEtwxMogJxHG-3" value="Load Balancer" style="rounded=0;whiteSpace=wrap;html=1;" parent="1" vertex="1">
          <mxGeometry x="790" y="-1030" width="120" height="60" as="geometry" />
        </mxCell>
        <mxCell id="axtBDR2nrEtwxMogJxHG-4" value="" style="edgeStyle=none;orthogonalLoop=1;jettySize=auto;html=1;rounded=0;entryX=0;entryY=0.5;entryDx=0;entryDy=0;" parent="1" target="axtBDR2nrEtwxMogJxHG-3" edge="1">
          <mxGeometry width="80" relative="1" as="geometry">
            <mxPoint x="570" y="-1000.5" as="sourcePoint" />
            <mxPoint x="650" y="-1000.5" as="targetPoint" />
            <Array as="points" />
          </mxGeometry>
        </mxCell>
        <mxCell id="axtBDR2nrEtwxMogJxHG-13" value="Long polling" style="edgeLabel;html=1;align=center;verticalAlign=middle;resizable=0;points=[];" parent="axtBDR2nrEtwxMogJxHG-4" vertex="1" connectable="0">
          <mxGeometry x="-0.1" y="2" relative="1" as="geometry">
            <mxPoint as="offset" />
          </mxGeometry>
        </mxCell>
        <mxCell id="axtBDR2nrEtwxMogJxHG-5" value="App Servers" style="rounded=0;whiteSpace=wrap;html=1;" parent="1" vertex="1">
          <mxGeometry x="990" y="-1110" width="120" height="60" as="geometry" />
        </mxCell>
        <mxCell id="axtBDR2nrEtwxMogJxHG-6" value="App Server" style="rounded=0;whiteSpace=wrap;html=1;" parent="1" vertex="1">
          <mxGeometry x="990" y="-950" width="120" height="60" as="geometry" />
        </mxCell>
        <mxCell id="axtBDR2nrEtwxMogJxHG-7" value="Kafka" style="shape=cylinder3;whiteSpace=wrap;html=1;boundedLbl=1;backgroundOutline=1;size=15;" parent="1" vertex="1">
          <mxGeometry x="1300" y="-1140" width="60" height="80" as="geometry" />
        </mxCell>
        <mxCell id="axtBDR2nrEtwxMogJxHG-8" value="App server if this is read/write" style="text;strokeColor=none;align=center;fillColor=none;html=1;verticalAlign=middle;whiteSpace=wrap;rounded=0;" parent="1" vertex="1">
          <mxGeometry x="1190" y="-1120" width="60" height="30" as="geometry" />
        </mxCell>
        <mxCell id="axtBDR2nrEtwxMogJxHG-9" value="Streaming application" style="rounded=0;whiteSpace=wrap;html=1;" parent="1" vertex="1">
          <mxGeometry x="1280" y="-1000" width="120" height="60" as="geometry" />
        </mxCell>
        <mxCell id="axtBDR2nrEtwxMogJxHG-10" value="Cassandra" style="shape=cylinder3;whiteSpace=wrap;html=1;boundedLbl=1;backgroundOutline=1;size=15;" parent="1" vertex="1">
          <mxGeometry x="1295" y="-890" width="90" height="130" as="geometry" />
        </mxCell>
        <mxCell id="axtBDR2nrEtwxMogJxHG-11" value="" style="edgeStyle=none;orthogonalLoop=1;jettySize=auto;html=1;rounded=0;entryX=0;entryY=0.5;entryDx=0;entryDy=0;" parent="1" target="axtBDR2nrEtwxMogJxHG-6" edge="1">
          <mxGeometry width="80" relative="1" as="geometry">
            <mxPoint x="910" y="-1001" as="sourcePoint" />
            <mxPoint x="990" y="-1001" as="targetPoint" />
            <Array as="points" />
          </mxGeometry>
        </mxCell>
        <mxCell id="axtBDR2nrEtwxMogJxHG-14" value="Text" style="text;strokeColor=none;align=center;fillColor=none;html=1;verticalAlign=middle;whiteSpace=wrap;rounded=0;" parent="1" vertex="1">
          <mxGeometry x="1420" y="-1080" width="60" height="30" as="geometry" />
        </mxCell>
        <mxCell id="mUBVr4LcRJIqnUURi7bm-1" value="" style="sketch=0;points=[[0,0,0],[0.25,0,0],[0.5,0,0],[0.75,0,0],[1,0,0],[0,1,0],[0.25,1,0],[0.5,1,0],[0.75,1,0],[1,1,0],[0,0.25,0],[0,0.5,0],[0,0.75,0],[1,0.25,0],[1,0.5,0],[1,0.75,0]];outlineConnect=0;fontColor=#232F3E;fillColor=#C925D1;strokeColor=#ffffff;dashed=0;verticalLabelPosition=bottom;verticalAlign=top;align=center;html=1;fontSize=12;fontStyle=0;aspect=fixed;shape=mxgraph.aws4.resourceIcon;resIcon=mxgraph.aws4.documentdb_with_mongodb_compatibility;" vertex="1" parent="1">
          <mxGeometry x="770" y="-600" width="78" height="78" as="geometry" />
        </mxCell>
      </root>
    </mxGraphModel>
  </diagram>
</mxfile>
